<?xml version="1.0" encoding="UTF-8"?>
<!DOCTYPE svg PUBLIC "-//W3C//DTD SVG 1.1//EN" "http://www.w3.org/Graphics/SVG/1.1/DTD/svg11.dtd">
<!-- Creator: CorelDRAW 2018 (64-Bit) -->
<svg xmlns="http://www.w3.org/2000/svg" xml:space="preserve" width="249px" height="42px" version="1.1" style="shape-rendering:geometricPrecision; text-rendering:geometricPrecision; image-rendering:optimizeQuality; fill-rule:evenodd; clip-rule:evenodd"
viewBox="0 0 212.88 35.75"
 xmlns:xlink="http://www.w3.org/1999/xlink">
 <defs>
  <style type="text/css">
   <![CDATA[
    .fil0 {fill:black;fill-rule:nonzero}
   ]]>
  </style>
 </defs>
 <g id="Слой_x0020_1">
  <metadata id="CorelCorpID_0Corel-Layer"/>
  <path class="fil0" d="M15.12 25.22l10.36 -18.16c0.52,-0.93 0.95,-1.71 1.28,-2.35 0.32,-0.64 0.49,-1.1 0.49,-1.37 0,-0.33 -0.28,-0.58 -0.84,-0.77l-2.3 -0.66 0.22 -1.31c2.22,0.05 4.25,0.08 6.09,0.08 1.82,0 3.57,-0.03 5.23,-0.08l-0.15 1.26 -2.73 0.76c-0.79,0.28 -1.4,0.67 -1.82,1.18 -0.44,0.51 -0.83,1.03 -1.15,1.57l-17.55 29.67 -2.6 0.2 -5.13 -29.5c-0.1,-0.56 -0.2,-1.03 -0.31,-1.42 -0.11,-0.38 -0.23,-0.67 -0.36,-0.89 -0.26,-0.42 -0.67,-0.71 -1.25,-0.88l-2.6 -0.69 0.17 -1.26c2.67,0.05 5.18,0.08 7.56,0.08 2.29,0 4.86,-0.03 7.71,-0.08l-0.12 1.26 -2.38 0.69c-0.35,0.11 -0.63,0.26 -0.85,0.44 -0.22,0.18 -0.33,0.53 -0.33,1.06 0,0.5 0.12,1.48 0.37,2.94l2.99 18.23zm27.57 1.96c-0.2,0.98 -0.36,1.88 -0.52,2.68 -0.14,0.8 -0.26,1.53 -0.36,2.18 -0.05,0.41 0.18,0.69 0.68,0.84l3 0.86 -0.2 1.25c-2.78,-0.05 -5.29,-0.07 -7.56,-0.07 -2.42,0 -4.93,0.02 -7.53,0.07l0.09 -1.25 3.32 -0.91c0.46,-0.13 0.74,-0.38 0.84,-0.76 0.14,-0.64 0.29,-1.37 0.45,-2.19 0.15,-0.81 0.33,-1.72 0.53,-2.7l3.75 -19.5c0.16,-0.84 0.3,-1.59 0.42,-2.27 0.11,-0.67 0.21,-1.27 0.3,-1.81 0.08,-0.44 -0.06,-0.72 -0.42,-0.84l-3.22 -0.95 0.22 -1.26c1.4,0.04 2.73,0.06 4,0.08 1.28,0.02 2.51,0.02 3.69,0.02 1.17,0 2.38,0 3.6,-0.02 1.23,-0.02 2.51,-0.04 3.83,-0.08l-0.17 1.26 -3.36 0.91c-0.41,0.1 -0.67,0.35 -0.76,0.76 -0.15,0.57 -0.29,1.2 -0.42,1.87 -0.13,0.68 -0.27,1.43 -0.44,2.23l-3.76 19.6zm38.47 -17.35l-1.37 0.22 -0.79 -7.05c-1.11,-0.39 -2.43,-0.59 -3.95,-0.59 -4.23,0 -7.74,1.78 -10.54,5.34 -2.81,3.55 -4.22,7.84 -4.22,12.83 0,3.72 1.03,6.64 3.1,8.77 2.06,2.11 4.88,3.18 8.44,3.18 2.26,0 4.59,-0.49 7,-1.48l0.52 1.45c-3.52,2.13 -7.36,3.2 -11.52,3.2 -4.67,0 -8.39,-1.33 -11.18,-3.97 -2.79,-2.65 -4.19,-6.17 -4.19,-10.58 0,-6.19 2.18,-11.26 6.55,-15.22 4.36,-3.95 9.83,-5.93 16.41,-5.93 2.85,0 5.73,0.34 8.64,1l0.1 0.24 -3 8.59zm16.67 7.89l11.88 -11.02c1.1,-1.01 1.91,-1.82 2.43,-2.42 0.53,-0.59 0.79,-1.05 0.79,-1.36 0,-0.25 -0.17,-0.42 -0.51,-0.52l-1.94 -0.54 0.2 -1.31c1.7,0.07 3.56,0.1 5.59,0.1 2.08,0 3.99,-0.03 5.72,-0.1l-0.14 1.26 -2.53 0.79c-0.69,0.21 -1.35,0.52 -1.98,0.92 -0.63,0.4 -1.44,1.06 -2.45,1.99l-10.48 9.86 8.3 14.85c0.51,0.91 0.97,1.57 1.39,2.01 0.42,0.43 1,0.75 1.76,0.97l1.91 0.54 -0.17 1.25c-1.94,-0.03 -3.92,-0.05 -5.97,-0.05 -1.52,0 -3.06,0.02 -4.64,0.05 -0.18,-0.58 -0.54,-1.43 -1.08,-2.53 -0.54,-1.1 -1.27,-2.47 -2.19,-4.12l-5.89 -10.62zm-2.3 9.46c-0.2,0.98 -0.37,1.88 -0.52,2.68 -0.15,0.8 -0.27,1.53 -0.37,2.18 -0.04,0.41 0.18,0.69 0.69,0.84l2.75 0.86 -0.2 1.25c-2.63,-0.05 -5.07,-0.07 -7.31,-0.07 -2.42,0 -4.94,0.02 -7.54,0.07l0.1 -1.25 3.31 -0.91c0.47,-0.12 0.74,-0.37 0.84,-0.76 0.14,-0.64 0.3,-1.37 0.45,-2.19 0.16,-0.81 0.33,-1.72 0.53,-2.7l3.76 -19.5c0.16,-0.84 0.3,-1.59 0.42,-2.27 0.1,-0.67 0.2,-1.27 0.29,-1.81 0.07,-0.44 -0.08,-0.72 -0.42,-0.84l-3.22 -0.95 0.23 -1.26c2.63,0.07 5.19,0.1 7.68,0.1 2.49,0 4.89,-0.03 7.19,-0.1l-0.17 1.26 -3.12 0.91c-0.4,0.1 -0.66,0.35 -0.76,0.76 -0.15,0.57 -0.29,1.2 -0.41,1.87 -0.14,0.68 -0.28,1.43 -0.45,2.23l-3.75 19.6zm38.66 -26.53l4.81 0c3.91,0 8.07,-0.03 12.48,-0.1l0.12 0.2 -2.83 8.16 -1.37 0.2 -0.69 -5.99 -9.2 0 -2.48 13.12 1.05 0c1.18,0 2.82,-0.01 4.92,-0.03 0.45,-0.01 0.77,-0.23 0.95,-0.66l1.53 -3.36 1.51 -0.05c-0.81,3.57 -1.5,7.06 -2.03,10.47l-1.53 0.09 -0.27 -3.39c-0.03,-0.42 -0.23,-0.64 -0.61,-0.66 -1.44,-0.03 -3.1,-0.05 -4.99,-0.05l-1.03 0 -1.59 8.4c-0.34,1.82 -0.67,3.63 -0.98,5.43l10.02 0 4.12 -6.53 1.55 -0.23 -2.11 9.17 -0.2 0.18c-4.39,-0.05 -8.5,-0.08 -12.35,-0.08l-5.48 0c-2.45,0 -4.84,0.02 -7.16,0.05l0.14 -1.25 3.32 -0.91c0.44,-0.12 0.72,-0.37 0.84,-0.76 0.12,-0.66 0.27,-1.39 0.43,-2.2 0.17,-0.81 0.35,-1.71 0.55,-2.69l3.73 -19.5c0.16,-0.84 0.3,-1.59 0.41,-2.27 0.12,-0.67 0.21,-1.27 0.3,-1.81 0.08,-0.42 -0.06,-0.7 -0.42,-0.84l-3.24 -0.95 0.2 -1.26c2.49,0.07 5.02,0.1 7.58,0.1zm22.47 -0.1c1.32,0.04 2.65,0.06 3.98,0.08 1.34,0.02 2.54,0.02 3.6,0.02 0.51,0 1.46,-0.03 2.86,-0.1 1.4,-0.06 2.42,-0.1 3.06,-0.1 3.93,0 6.88,0.65 8.87,1.94 1.99,1.29 2.98,3.22 2.98,5.78 0,4.69 -2.99,7.98 -8.98,9.85 0.23,0.43 0.46,0.91 0.7,1.43 0.24,0.53 0.45,1 0.62,1.43 0.19,0.45 0.37,0.89 0.56,1.34 0.19,0.45 0.37,0.91 0.55,1.37 0.34,0.89 0.69,1.74 1.04,2.57 0.35,0.83 0.72,1.69 1.1,2.58 0.31,0.74 0.63,1.4 0.94,1.98 0.32,0.59 0.69,1.09 1.1,1.52 0.42,0.42 0.92,0.77 1.52,1.05 0.58,0.29 1.32,0.48 2.2,0.6l-0.14 1.24c-1.44,0.14 -2.81,0.21 -4.1,0.21 -1.18,0 -2.21,-0.05 -3.08,-0.17 -0.88,-0.11 -1.64,-0.34 -2.29,-0.67 -0.64,-0.34 -1.21,-0.81 -1.69,-1.42 -0.48,-0.61 -0.93,-1.4 -1.33,-2.36 -0.32,-0.74 -0.62,-1.48 -0.92,-2.24 -0.29,-0.75 -0.58,-1.55 -0.85,-2.39 -0.33,-0.9 -0.68,-1.87 -1.05,-2.9 -0.37,-1.04 -0.75,-2.06 -1.16,-3.05 -0.11,-0.28 -0.23,-0.53 -0.39,-0.74 -0.15,-0.22 -0.42,-0.34 -0.8,-0.37l-1.08 -0.08 -1.56 8.23c-0.19,0.98 -0.35,1.86 -0.5,2.65 -0.14,0.79 -0.27,1.5 -0.37,2.14 -0.06,0.51 0.1,0.83 0.47,0.95l2.8 0.82 -0.17 1.25c-1.23,-0.03 -2.44,-0.05 -3.66,-0.06 -1.21,0 -2.39,-0.01 -3.56,-0.01 -1.21,0 -2.46,0.01 -3.75,0.01 -1.29,0.01 -2.56,0.03 -3.78,0.06l0.11 -1.25 3.32 -0.91c0.43,-0.12 0.71,-0.37 0.84,-0.76 0.13,-0.66 0.28,-1.39 0.45,-2.2 0.17,-0.81 0.35,-1.71 0.53,-2.69l3.75 -19.5c0.16,-0.84 0.31,-1.59 0.42,-2.25 0.11,-0.66 0.21,-1.27 0.3,-1.83 0.06,-0.44 -0.08,-0.72 -0.42,-0.84l-3.22 -0.95 0.18 -1.26zm8.24 16.24c0.33,0.07 0.67,0.1 1.03,0.1 5.5,0 8.26,-2.72 8.26,-8.18 0,-1.92 -0.46,-3.39 -1.36,-4.39 -0.9,-1 -2.19,-1.5 -3.87,-1.5 -0.5,0 -0.97,0.04 -1.4,0.12l-2.66 13.85zm43.04 -13.92c-1.08,-0.34 -2.25,-0.51 -3.49,-0.51 -2.31,0 -4.23,0.55 -5.77,1.64 -1.53,1.08 -2.29,2.56 -2.25,4.45 0.01,0.86 0.21,1.62 0.6,2.27 0.38,0.64 0.87,1.22 1.47,1.74 0.6,0.51 1.27,0.99 2.02,1.41 0.73,0.43 1.5,0.86 2.27,1.31 0.96,0.55 1.89,1.13 2.79,1.72 0.9,0.61 1.7,1.28 2.38,2.03 0.69,0.75 1.24,1.61 1.66,2.56 0.41,0.96 0.62,2.08 0.62,3.35 0,3.44 -1.49,6.12 -4.49,8.03 -2.99,1.92 -6.69,2.88 -11.09,2.88 -2.83,0 -5.78,-0.44 -8.82,-1.32l-0.1 -0.22 2.61 -8.9 1.57 -0.25 0.67 7.59c1.29,0.46 2.66,0.68 4.12,0.68 2.42,0 4.44,-0.57 6.06,-1.7 1.62,-1.13 2.43,-2.65 2.43,-4.55 0,-0.9 -0.19,-1.68 -0.56,-2.36 -0.38,-0.67 -0.87,-1.27 -1.48,-1.79 -0.6,-0.52 -1.28,-0.99 -2.04,-1.41 -0.75,-0.42 -1.5,-0.84 -2.25,-1.27 -0.84,-0.45 -1.69,-0.96 -2.57,-1.51 -0.87,-0.54 -1.67,-1.19 -2.38,-1.95 -0.71,-0.75 -1.29,-1.62 -1.74,-2.61 -0.45,-0.99 -0.68,-2.16 -0.68,-3.52 0,-3.36 1.36,-5.98 4.09,-7.85 2.73,-1.87 6.36,-2.81 10.91,-2.81 2.82,0 5.58,0.37 8.28,1.11l0.1 0.22 -2.75 7.95 -1.4 0.23 -0.79 -6.64z"/>
 </g>
</svg>
